<?xml version="1.0" encoding="UTF-8"?>
<svg id="Layer_2" data-name="Layer 2" xmlns="http://www.w3.org/2000/svg" viewBox="0 0 337.65 133.23">
  <defs>
    <style>
      .cls-1 {
        opacity: .7;
      }

      .cls-1, .cls-2, .cls-3, .cls-4 {
        fill: #fff;
        stroke-width: 0px;
      }

      .cls-2 {
        opacity: .6;
      }

      .cls-3 {
        opacity: .5;
      }
    </style>
  </defs>
  <g id="Layer_1-2" data-name="Layer 1">
    <g>
      <g>
        <polygon class="cls-4" points="53.64 133.23 35.58 131.18 35.48 113.38 53.8 115.17 53.64 133.23"/>
        <polygon class="cls-4" points="122.66 79.97 0 79.97 0 65.29 122.77 65.29 122.66 79.97"/>
        <polygon class="cls-3" points="9.83 62.06 112.94 62.06 122.77 65.29 0 65.29 9.83 62.06"/>
        <polygon class="cls-3" points="63.4 85.31 76.42 86.26 53.8 115.17 35.48 113.38 63.4 85.31"/>
        <polygon class="cls-4" points="26.6 19.61 13.2 19.08 12.52 .11 26.01 0 26.6 19.61"/>
        <polygon class="cls-2" points="100.49 2.97 100.1 16.08 26.6 19.61 26.02 .04 100.49 2.97"/>
        <polygon class="cls-4" points="95.1 56.7 27.9 40.65 27.58 27.43 95.74 37.67 95.1 56.7"/>
        <polygon class="cls-1" points="95.74 37.67 27.58 27.43 39.21 26.96 109.78 36.57 95.74 37.67"/>
      </g>
      <g>
        <polygon class="cls-2" points="265.95 72.87 256.21 72.96 258.96 71.32 268.53 71.33 265.95 72.87"/>
        <path class="cls-4" d="M172.41,39.51h8.74s12.57,27.25,12.57,27.25l12.55-27.29h8.68s.05,40.72.05,40.72h-8.45s-.03-23.13-.03-23.13l-10.75,23.15h-4.08s-10.75-23.12-10.75-23.12l.03,23.14h-8.51s-.05-40.72-.05-40.72Z"/>
        <path class="cls-4" d="M232.44,77.68c-3.46-1.65-6.14-4.01-8.02-7.1-1.89-3.09-2.84-6.71-2.84-10.87,0-4.16.94-7.84,2.84-11.05,1.9-3.21,4.51-5.7,7.83-7.47,3.32-1.77,7.02-2.66,11.1-2.67,4.08,0,7.76.87,11.05,2.64,3.29,1.76,5.88,4.25,7.79,7.45,1.91,3.2,2.86,6.88,2.87,11.04,0,2.56-.59,5.05-1.77,7.46-1.18,2.41-2.67,4.34-4.45,5.78h7.11s0,7.22,0,7.22l-21.45.03c-4.58,0-8.61-.81-12.07-2.46ZM249.91,70.9c1.9-.99,3.4-2.45,4.48-4.38,1.08-1.93,1.63-4.19,1.62-6.79,0-2.6-.56-4.89-1.67-6.85-1.11-1.96-2.63-3.46-4.55-4.51-1.92-1.05-4.07-1.57-6.44-1.56-2.41,0-4.57.53-6.5,1.58-1.92,1.05-3.44,2.56-4.57,4.52-1.12,1.96-1.68,4.25-1.68,6.85,0,3.96,1.18,7.06,3.54,9.29,2.35,2.23,5.43,3.34,9.24,3.34,2.45,0,4.62-.5,6.53-1.5Z"/>
        <path class="cls-4" d="M280.04,80.27c-2.45-.46-4.45-1.08-6.01-1.86v-7.81c2.05,1.01,4.19,1.76,6.4,2.26,2.22.5,4.33.75,6.35.75,2.25,0,3.96-.39,5.13-1.17,1.16-.78,1.75-1.87,1.74-3.27,0-1.01-.29-1.86-.88-2.56-.58-.7-1.43-1.33-2.54-1.89-1.11-.56-2.81-1.31-5.1-2.24-3.81-1.55-6.57-3.28-8.28-5.21s-2.57-4.3-2.57-7.14c0-2.29.61-4.32,1.86-6.09,1.24-1.77,2.99-3.14,5.24-4.12,2.25-.97,4.85-1.46,7.81-1.47,2.41,0,4.55.19,6.41.57,1.87.39,3.69.99,5.48,1.8v7.58c-3.41-1.7-6.83-2.55-10.25-2.55-2.18,0-3.88.38-5.13,1.14-1.24.76-1.86,1.84-1.86,3.24,0,1.01.29,1.84.88,2.5.58.66,1.4,1.24,2.45,1.75,1.05.5,2.76,1.24,5.13,2.21,2.76,1.16,4.92,2.28,6.47,3.34,1.55,1.07,2.7,2.33,3.44,3.78.74,1.46,1.11,3.25,1.11,5.39,0,3.69-1.32,6.57-3.98,8.63-2.66,2.06-6.63,3.1-11.91,3.1-2.49,0-4.96-.23-7.4-.69Z"/>
        <path class="cls-4" d="M314.35,80.23c-2.45-.46-4.45-1.08-6.01-1.86v-7.81c2.05,1.01,4.19,1.76,6.4,2.26,2.22.5,4.33.75,6.35.75,2.25,0,3.96-.39,5.13-1.17,1.16-.78,1.75-1.87,1.74-3.27,0-1.01-.29-1.87-.88-2.56-.58-.7-1.43-1.33-2.54-1.89s-2.81-1.31-5.1-2.24c-3.81-1.55-6.57-3.28-8.28-5.2s-2.57-4.3-2.57-7.14c0-2.29.61-4.32,1.86-6.09,1.24-1.77,2.99-3.14,5.24-4.12,2.25-.97,4.85-1.46,7.81-1.47,2.41,0,4.55.19,6.41.57s3.69.98,5.48,1.8v7.58c-3.41-1.7-6.83-2.55-10.25-2.55-2.18,0-3.88.38-5.13,1.14-1.24.76-1.86,1.84-1.86,3.24,0,1.01.29,1.85.88,2.5.58.66,1.4,1.24,2.45,1.75,1.05.5,2.76,1.24,5.13,2.21,2.76,1.16,4.92,2.28,6.47,3.34,1.55,1.07,2.7,2.33,3.44,3.78.74,1.46,1.11,3.25,1.11,5.39,0,3.69-1.32,6.57-3.98,8.63-2.66,2.06-6.63,3.1-11.91,3.1-2.49,0-4.96-.23-7.4-.69Z"/>
      </g>
    </g>
  </g>
</svg>
